<svg width="19" height="18" viewBox="0 0 19 18" fill="none" xmlns="http://www.w3.org/2000/svg">
<path d="M16.3313 11.9992C16.2697 11.9289 16.2092 11.8586 16.1499 11.7907C15.3335 10.8552 14.8395 10.2906 14.8395 7.64226C14.8395 6.27117 14.4933 5.14617 13.8109 4.30242C13.3077 3.6791 12.6274 3.20625 11.7309 2.8568C11.7193 2.85072 11.709 2.84274 11.7005 2.83324C11.378 1.81019 10.4955 1.125 9.50024 1.125C8.50497 1.125 7.62288 1.81019 7.3004 2.83219C7.29179 2.84134 7.28163 2.84906 7.27034 2.85504C5.17811 3.67101 4.16132 5.23652 4.16132 7.64121C4.16132 10.2906 3.66813 10.8552 2.85098 11.7896C2.79161 11.8575 2.73112 11.9264 2.66952 11.9981C2.5104 12.1799 2.40958 12.4011 2.379 12.6355C2.34841 12.8699 2.38935 13.1077 2.49696 13.3207C2.72593 13.7777 3.21391 14.0614 3.77093 14.0614H15.2336C15.7881 14.0614 16.2727 13.7781 16.5024 13.3232C16.6105 13.1101 16.6518 12.8721 16.6215 12.6374C16.5912 12.4028 16.4905 12.1813 16.3313 11.9992Z" fill="#718096"/>
<path d="M9.49997 16.875C10.0362 16.8746 10.5623 16.7367 11.0226 16.4759C11.4828 16.2152 11.8599 15.8413 12.114 15.3939C12.1259 15.3724 12.1318 15.3484 12.1311 15.3242C12.1304 15.2999 12.1231 15.2763 12.1099 15.2555C12.0966 15.2347 12.078 15.2176 12.0557 15.2056C12.0334 15.1937 12.0082 15.1875 11.9826 15.1875H7.0181C6.99247 15.1874 6.96725 15.1936 6.9449 15.2055C6.92255 15.2174 6.90383 15.2346 6.89056 15.2554C6.8773 15.2761 6.86994 15.2998 6.8692 15.3241C6.86847 15.3484 6.87438 15.3724 6.88636 15.3939C7.14039 15.8412 7.51746 16.2151 7.9776 16.4758C8.43774 16.7366 8.96379 16.8745 9.49997 16.875Z" fill="#718096"/>
</svg>
