<svg width="11" height="11" viewBox="0 0 11 11" fill="none" xmlns="http://www.w3.org/2000/svg">
<path d="M10.3206 1.60265C10.4089 1.51738 10.4794 1.41537 10.5279 1.30256C10.5765 1.18975 10.602 1.06841 10.6032 0.945614C10.6043 0.822818 10.5809 0.701029 10.5345 0.587351C10.4881 0.473674 10.4194 0.370384 10.3326 0.283511C10.2458 0.196637 10.1426 0.127918 10.029 0.081364C9.91535 0.03481 9.79359 0.0113534 9.67079 0.0123622C9.54799 0.0133709 9.42663 0.0388251 9.31378 0.0872397C9.20092 0.135654 9.09884 0.20606 9.01349 0.294348L5.30684 3.99977L1.60142 0.294348C1.51675 0.203486 1.41465 0.130608 1.30121 0.080061C1.18777 0.0295145 1.0653 0.00233485 0.941128 0.000143925C0.816953 -0.002047 0.693609 0.0207957 0.578453 0.0673089C0.463298 0.113822 0.358691 0.183053 0.270872 0.270872C0.183053 0.358691 0.113822 0.463297 0.0673089 0.578453C0.0207957 0.693608 -0.002047 0.816953 0.000143925 0.941128C0.00233485 1.0653 0.0295145 1.18776 0.0800611 1.30121C0.130608 1.41465 0.203486 1.51675 0.294348 1.60142L3.9973 5.30807L0.291882 9.01349C0.128523 9.1888 0.0395883 9.42068 0.0438156 9.66027C0.0480429 9.89986 0.145102 10.1285 0.314544 10.2979C0.483985 10.4673 0.71258 10.5644 0.95217 10.5686C1.19176 10.5728 1.42364 10.4839 1.59895 10.3206L5.30684 6.61514L9.01225 10.3218C9.18757 10.4851 9.41945 10.5741 9.65904 10.5699C9.89863 10.5656 10.1272 10.4686 10.2967 10.2991C10.4661 10.1297 10.5632 9.90109 10.5674 9.6615C10.5716 9.42191 10.4827 9.19003 10.3193 9.01472L6.61637 5.30807L10.3206 1.60265Z" fill="white"/>
</svg>
