<svg width="41" height="29" viewBox="0 0 41 29" fill="none" xmlns="http://www.w3.org/2000/svg">
<path d="M33.158 7.75943C31.9534 5.31247 29.8746 3.28217 27.2399 1.97964C24.6053 0.677117 21.5602 0.174225 18.5713 0.548028C15.5825 0.92183 12.8147 2.15171 10.6921 4.04919C8.56952 5.94668 7.20924 8.4071 6.81971 11.0534C4.94012 11.4514 3.29129 12.4457 2.18633 13.8476C1.08138 15.2494 0.597257 16.9612 0.825903 18.6579C1.05455 20.3545 1.98004 21.9179 3.42662 23.051C4.8732 24.1842 6.74012 24.8082 8.67285 24.8046C9.19571 24.8046 9.69715 24.621 10.0669 24.2941C10.4366 23.9673 10.6443 23.524 10.6443 23.0617C10.6443 22.5995 10.4366 22.1562 10.0669 21.8293C9.69715 21.5025 9.19571 21.3189 8.67285 21.3189C7.62714 21.3189 6.62426 20.9516 5.88483 20.2979C5.1454 19.6442 4.73 18.7576 4.73 17.8331C4.73 16.9087 5.1454 16.0221 5.88483 15.3684C6.62426 14.7147 7.62714 14.3474 8.67285 14.3474C9.19571 14.3474 9.69715 14.1638 10.0669 13.837C10.4366 13.5101 10.6443 13.0668 10.6443 12.6046C10.6493 10.5433 11.4807 8.55026 12.9908 6.97965C14.5009 5.40904 16.5919 4.36252 18.8922 4.02601C21.1926 3.68951 23.5535 4.0848 25.5553 5.14168C27.5572 6.19855 29.0705 7.84856 29.8263 9.79858C29.939 10.0981 30.1415 10.3649 30.4124 10.5705C30.6832 10.7762 31.0121 10.913 31.364 10.9663C32.6771 11.1857 33.8675 11.7917 34.7411 12.6857C35.6148 13.5796 36.1202 14.7088 36.1751 15.8892C36.2299 17.0696 35.831 18.2317 35.0433 19.186C34.2556 20.1403 33.1255 20.8307 31.8371 21.1446C31.33 21.2601 30.8955 21.5491 30.6293 21.9478C30.3631 22.3466 30.287 22.8225 30.4177 23.2709C30.5484 23.7192 30.8753 24.1033 31.3263 24.3387C31.7774 24.574 32.3157 24.6413 32.8229 24.5257C34.8976 24.041 36.7367 22.9711 38.061 21.4783C39.3852 19.9855 40.1223 18.1514 40.1602 16.2546C40.1981 14.3578 39.5348 12.5018 38.271 10.9686C37.0073 9.43536 35.212 8.3086 33.158 7.75943ZM21.9011 11.3671C21.7136 11.2085 21.4926 11.0841 21.2506 11.0011C20.7706 10.8268 20.2323 10.8268 19.7523 11.0011C19.5103 11.0841 19.2892 11.2085 19.1017 11.3671L13.1874 16.5957C12.8162 16.9239 12.6076 17.369 12.6076 17.8331C12.6076 18.2973 12.8162 18.7424 13.1874 19.0706C13.5587 19.3988 14.0621 19.5831 14.5871 19.5831C15.1121 19.5831 15.6156 19.3988 15.9869 19.0706L18.53 16.8049V26.5474C18.53 27.0097 18.7377 27.453 19.1074 27.7798C19.4771 28.1067 19.9786 28.2903 20.5014 28.2903C21.0243 28.2903 21.5257 28.1067 21.8954 27.7798C22.2652 27.453 22.4729 27.0097 22.4729 26.5474V16.8049L25.016 19.0706C25.1993 19.2339 25.4173 19.3636 25.6575 19.4521C25.8978 19.5406 26.1555 19.5861 26.4157 19.5861C26.676 19.5861 26.9336 19.5406 27.1739 19.4521C27.4141 19.3636 27.6322 19.2339 27.8154 19.0706C28.0002 18.9086 28.1469 18.7158 28.247 18.5034C28.347 18.291 28.3986 18.0632 28.3986 17.8331C28.3986 17.6031 28.347 17.3753 28.247 17.1629C28.1469 16.9505 28.0002 16.7577 27.8154 16.5957L21.9011 11.3671Z" fill="#232360"/>
</svg>
