<svg width="23" height="16" viewBox="0 0 23 16" fill="none" xmlns="http://www.w3.org/2000/svg">
<path d="M10.2618 15.108C10.3509 15.0368 10.4216 14.9522 10.4698 14.8592C10.518 14.7661 10.5428 14.6664 10.5428 14.5656C10.5428 14.4649 10.518 14.3651 10.4698 14.2721C10.4216 14.179 10.3509 14.0944 10.2618 14.0233L3.27216 8.4329L22.0417 8.4329C22.2959 8.4329 22.5396 8.35214 22.7193 8.20837C22.899 8.06461 23 7.86962 23 7.66631C23 7.463 22.899 7.26802 22.7193 7.12425C22.5396 6.98049 22.2959 6.89972 22.0417 6.89972L3.27216 6.89972L10.2618 1.30938C10.4416 1.16553 10.5426 0.97044 10.5426 0.767015C10.5426 0.56359 10.4416 0.368496 10.2618 0.224653C10.082 0.0808099 9.83807 -3.42489e-07 9.58377 -3.35113e-07C9.32947 -3.27737e-07 9.08559 0.0808099 8.90577 0.224653L0.281057 7.12395C0.191958 7.19515 0.121275 7.27969 0.0730488 7.37276C0.024823 7.46582 4.13406e-07 7.56557 4.1891e-07 7.66631C4.24415e-07 7.76706 0.024823 7.86681 0.0730489 7.95987C0.121275 8.05293 0.191958 8.13748 0.281058 8.20868L8.90577 15.108C8.99478 15.1792 9.10047 15.2358 9.2168 15.2744C9.33314 15.3129 9.45784 15.3328 9.58377 15.3328C9.70971 15.3328 9.83441 15.3129 9.95075 15.2744C10.0671 15.2358 10.1728 15.1792 10.2618 15.108Z" fill="black"/>
</svg>
