<svg width="20" height="19" viewBox="0 0 20 19" fill="none" xmlns="http://www.w3.org/2000/svg">
<path d="M19.241 11.3261V18.3912H15.1449V11.7991C15.1449 10.1426 14.5523 9.01282 13.0701 9.01282C11.9384 9.01282 11.2643 9.77497 10.9685 10.5113C10.8603 10.7746 10.8325 11.1413 10.8325 11.5099V18.3912H6.73453C6.73453 18.3912 6.79006 7.22714 6.73453 6.06956H10.8325V7.81598L10.8057 7.8562H10.8325V7.81598C11.3763 6.9782 12.3482 5.7804 14.5245 5.7804C17.2198 5.7804 19.241 7.54215 19.241 11.3261ZM2.44889 0.130371C1.04812 0.130371 0.130859 1.04954 0.130859 2.25883C0.130859 3.4413 1.02131 4.38824 2.39528 4.38824H2.42209C3.85159 4.38824 4.73916 3.4413 4.73916 2.25883C4.71427 1.04954 3.85159 0.130371 2.44889 0.130371ZM0.374057 18.3912H4.47011V6.06956H0.374057V18.3912Z" fill="#9488FD"/>
</svg>
