<svg width="45" height="40" viewBox="0 0 45 40" fill="none" xmlns="http://www.w3.org/2000/svg">
<path d="M16.6455 36.8707C7.46789 36.8707 0 29.3019 0 20.0003C0 10.6987 7.46789 3.12988 16.6455 3.12988C25.823 3.12988 33.2909 10.6987 33.2909 20.0003C33.2878 29.3019 25.823 36.8707 16.6455 36.8707ZM16.6455 5.05553C8.51456 5.05553 1.89997 11.7595 1.89997 20.0003C1.89997 28.2411 8.51456 34.9451 16.6455 34.9451C24.7763 34.9451 31.3909 28.2411 31.3909 20.0003C31.3909 11.7595 24.7763 5.05553 16.6455 5.05553Z" fill="#715E98"/>
<path d="M25.2665 40C14.3854 40 5.5332 31.0282 5.5332 20C5.5332 8.97185 14.3854 0 25.2665 0C36.1476 0 44.9998 8.97185 44.9998 20C44.9998 31.0282 36.1445 40 25.2665 40ZM25.2665 1.92565C15.4321 1.92565 7.43317 10.0327 7.43317 20C7.43317 29.9673 15.4321 38.0743 25.2665 38.0743C35.1009 38.0743 43.0998 29.9673 43.0998 20C43.0998 10.0327 35.0979 1.92565 25.2665 1.92565Z" fill="#715E98"/>
</svg>
