<svg width="29" height="29" viewBox="0 0 29 29" fill="none" xmlns="http://www.w3.org/2000/svg">
<g clip-path="url(#clip0_1_10890)">
<path d="M14.5 0C22.2459 0 29 6.3945 29 13.775C29 21.0308 22.3982 26.7409 14.5 26.7409C12.8107 26.7418 11.132 26.4746 9.5265 25.9492C8.8537 26.6017 8.62315 26.8235 7.1949 28.201C6.1654 28.9783 5.1968 29.2422 4.33115 28.7521C3.45825 28.2591 3.1958 27.2992 3.37415 26.0347L3.95415 22.6722C1.4355 20.3029 0 17.1709 0 13.775C0 6.3945 6.75265 0 14.5 0ZM14.5 2.03C7.8503 2.03 2.03 7.54 2.03 13.775C2.03 16.7403 3.3524 19.4706 5.684 21.5035L5.713 21.5282L6.14365 21.9023L6.0465 22.4678L5.8464 23.6336L5.79275 23.9439L5.3795 26.3479C5.35513 26.5098 5.3406 26.673 5.336 26.8366V26.9744C5.336 26.9816 5.33455 26.9845 5.3331 26.986C5.34325 26.9715 5.54045 26.9091 5.8783 26.6626L9.0248 23.6089L9.6251 23.8351C11.1845 24.4169 12.8356 24.7141 14.5 24.7123C21.3382 24.7123 26.97 19.8404 26.97 13.775C26.97 7.54145 21.1497 2.03 14.5 2.03ZM7.57915 11.3289C7.87127 11.3182 8.16253 11.3665 8.43555 11.4709C8.70858 11.5753 8.95775 11.7337 9.16818 11.9366C9.37861 12.1395 9.54599 12.3827 9.66031 12.6518C9.77464 12.9208 9.83356 13.2101 9.83356 13.5024C9.83356 13.7947 9.77464 14.084 9.66031 14.353C9.54599 14.6221 9.37861 14.8653 9.16818 15.0682C8.95775 15.2711 8.70858 15.4295 8.43555 15.5339C8.16253 15.6383 7.87127 15.6866 7.57915 15.676C7.01643 15.6554 6.48361 15.4174 6.09278 15.012C5.70194 14.6067 5.48356 14.0655 5.48356 13.5024C5.48356 12.9393 5.70194 12.3982 6.09278 11.9928C6.48361 11.5874 7.01643 11.3494 7.57915 11.3289ZM14.8263 11.3289C15.1184 11.3182 15.4096 11.3665 15.6827 11.4709C15.9557 11.5753 16.2048 11.7337 16.4153 11.9366C16.6257 12.1395 16.7931 12.3827 16.9074 12.6518C17.0217 12.9208 17.0807 13.2101 17.0807 13.5024C17.0807 13.7947 17.0217 14.084 16.9074 14.353C16.7931 14.6221 16.6257 14.8653 16.4153 15.0682C16.2048 15.2711 15.9557 15.4295 15.6827 15.5339C15.4096 15.6383 15.1184 15.6866 14.8263 15.676C14.2635 15.6554 13.7307 15.4174 13.3399 15.012C12.949 14.6067 12.7307 14.0655 12.7307 13.5024C12.7307 12.9393 12.949 12.3982 13.3399 11.9928C13.7307 11.5874 14.2635 11.3494 14.8263 11.3289ZM22.0719 11.3289C22.364 11.3182 22.6553 11.3665 22.9283 11.4709C23.2013 11.5753 23.4505 11.7337 23.6609 11.9366C23.8714 12.1395 24.0387 12.3827 24.1531 12.6518C24.2674 12.9208 24.3263 13.2101 24.3263 13.5024C24.3263 13.7947 24.2674 14.084 24.1531 14.353C24.0387 14.6221 23.8714 14.8653 23.6609 15.0682C23.4505 15.2711 23.2013 15.4295 22.9283 15.5339C22.6553 15.6383 22.364 15.6866 22.0719 15.676C21.5092 15.6554 20.9764 15.4174 20.5855 15.012C20.1947 14.6067 19.9763 14.0655 19.9763 13.5024C19.9763 12.9393 20.1947 12.3982 20.5855 11.9928C20.9764 11.5874 21.5092 11.3494 22.0719 11.3289Z" fill="black"/>
</g>
<defs>
<clipPath id="clip0_1_10890">
<rect width="29" height="29" fill="white"/>
</clipPath>
</defs>
</svg>
