<svg width="24" height="27" viewBox="0 0 24 27" fill="none" xmlns="http://www.w3.org/2000/svg">
<path d="M8 24.2295C7.72 24.2295 7.42998 24.1546 7.16998 24.0048C6.59998 23.6837 6.25 23.0416 6.25 22.3566V20.837C3.23 20.5053 1.25 18.1293 1.25 14.726V8.30466C1.25 4.62309 3.56 2.15088 7 2.15088H17C20.44 2.15088 22.75 4.62309 22.75 8.30466V14.726C22.75 18.4075 20.44 20.8797 17 20.8797H13.23L8.96997 23.9193C8.67997 24.1226 8.34 24.2295 8 24.2295ZM7 3.7455C4.42 3.7455 2.75 5.53277 2.75 8.29395V14.7154C2.75 17.4765 4.42 19.2638 7 19.2638C7.41 19.2638 7.75 19.6277 7.75 20.0665V22.346C7.75 22.4852 7.83 22.5494 7.88 22.5815C7.93001 22.6136 8.03001 22.6457 8.14001 22.5708L12.59 19.4029C12.71 19.3173 12.86 19.2638 13.01 19.2638H17.01C19.59 19.2638 21.26 17.4765 21.26 14.7154V8.29395C21.26 5.53277 19.59 3.7455 17.01 3.7455H7Z" fill="#9197B3"/>
<path d="M11.9998 13.3027C11.5898 13.3027 11.2498 12.9389 11.2498 12.5001V12.2753C11.2498 11.0339 12.0998 10.4238 12.4198 10.1884C12.7898 9.92081 12.9098 9.73889 12.9098 9.46063C12.9098 8.92552 12.4998 8.48668 11.9998 8.48668C11.4998 8.48668 11.0898 8.92552 11.0898 9.46063C11.0898 9.89942 10.7498 10.2633 10.3398 10.2633C9.92984 10.2633 9.58984 9.89942 9.58984 9.46063C9.58984 8.03723 10.6698 6.88135 11.9998 6.88135C13.3298 6.88135 14.4098 8.03723 14.4098 9.46063C14.4098 10.6807 13.5698 11.2907 13.2598 11.5155C12.8698 11.7937 12.7498 11.9757 12.7498 12.2753V12.5001C12.7498 12.9496 12.4098 13.3027 11.9998 13.3027Z" fill="#9197B3"/>
<path d="M12 15.9676C11.58 15.9676 11.25 15.6038 11.25 15.165C11.25 14.7262 11.59 14.3623 12 14.3623C12.41 14.3623 12.75 14.7262 12.75 15.165C12.75 15.6038 12.42 15.9676 12 15.9676Z" fill="#9197B3"/>
</svg>
