<svg width="18" height="13" viewBox="0 0 18 13" fill="none" xmlns="http://www.w3.org/2000/svg">
<path fill-rule="evenodd" clip-rule="evenodd" d="M14.7778 1.44444L2.33333 1.44444C1.90378 1.44444 1.55556 1.76779 1.55556 2.16667L1.55556 10.8333C1.55556 11.2322 1.90378 11.5556 2.33333 11.5556L14.7778 11.5556C15.2073 11.5556 15.5556 11.2322 15.5556 10.8333V2.16667C15.5556 1.76779 15.2073 1.44444 14.7778 1.44444ZM2.33333 0C1.04467 0 0 0.97005 0 2.16667L0 10.8333C0 12.03 1.04467 13 2.33333 13L14.7778 13C16.0664 13 17.1111 12.03 17.1111 10.8333V2.16667C17.1111 0.97005 16.0664 0 14.7778 0L2.33333 0Z" fill="#768396"/>
<path fill-rule="evenodd" clip-rule="evenodd" d="M3.28967 3.1488C3.56466 2.84238 4.0551 2.80098 4.38509 3.05633L8.05592 5.89685C8.34435 6.12004 8.76332 6.12004 9.05176 5.89685L12.7226 3.05633C13.0526 2.80098 13.543 2.84238 13.818 3.1488C14.093 3.45522 14.0484 3.91063 13.7184 4.16598L10.0476 7.0065C9.1823 7.67608 7.92538 7.67609 7.06008 7.0065L3.38925 4.16598C3.05926 3.91063 3.01467 3.45522 3.28967 3.1488Z" fill="#768396"/>
</svg>
