<svg width="12" height="12" viewBox="0 0 12 12" fill="none" xmlns="http://www.w3.org/2000/svg">
<path d="M7.79627 1.51359C7.34018 1.02117 6.70315 0.75 6.00002 0.75C5.29315 0.75 4.65401 1.01953 4.20002 1.50891C3.74112 2.00367 3.51752 2.67609 3.57002 3.40219C3.67409 4.83469 4.76416 6 6.00002 6C7.23588 6 8.32408 4.83492 8.42979 3.40265C8.48299 2.68312 8.25799 2.01211 7.79627 1.51359Z" fill="#718096"/>
<path d="M10.1251 11.249H1.87513C1.76715 11.2504 1.66021 11.2277 1.56209 11.1826C1.46398 11.1375 1.37716 11.0711 1.30795 10.9882C1.1556 10.8061 1.0942 10.5574 1.13967 10.3059C1.33748 9.20855 1.95482 8.28676 2.92513 7.63965C3.78716 7.0652 4.87912 6.74902 6.00013 6.74902C7.12115 6.74902 8.2131 7.06543 9.07513 7.63965C10.0454 8.28652 10.6628 9.20832 10.8606 10.3057C10.9061 10.5571 10.8447 10.8058 10.6923 10.9879C10.6231 11.0709 10.5363 11.1373 10.4382 11.1825C10.3401 11.2277 10.2331 11.2504 10.1251 11.249V11.249Z" fill="#718096"/>
</svg>
