<svg width="22" height="18" viewBox="0 0 22 18" fill="none" xmlns="http://www.w3.org/2000/svg">
<path d="M11.9628 17.7361C11.8791 17.6525 11.8127 17.5532 11.7675 17.444C11.7222 17.3347 11.6989 17.2176 11.6989 17.0993C11.6989 16.9811 11.7222 16.864 11.7675 16.7547C11.8127 16.6455 11.8791 16.5462 11.9628 16.4626L18.5267 9.89983L0.900299 9.89983C0.661619 9.89983 0.432716 9.80502 0.263944 9.63625C0.0951725 9.46748 0.000358178 9.23857 0.000358188 8.99989C0.000358199 8.76122 0.0951725 8.53231 0.263944 8.36354C0.432716 8.19477 0.661619 8.09995 0.900299 8.09995L18.5267 8.09996L11.9628 1.53715C11.7939 1.36828 11.6991 1.13925 11.6991 0.900439C11.6991 0.661628 11.7939 0.432597 11.9628 0.263732C12.1317 0.094867 12.3607 -4.02066e-07 12.5995 -3.93407e-07C12.8383 -3.84747e-07 13.0674 0.0948671 13.2362 0.263732L21.3357 8.36319C21.4193 8.44677 21.4857 8.54602 21.531 8.65527C21.5763 8.76452 21.5996 8.88163 21.5996 8.99989C21.5996 9.11816 21.5763 9.23527 21.531 9.34452C21.4857 9.45377 21.4193 9.55302 21.3357 9.6366L13.2362 17.7361C13.1526 17.8197 13.0534 17.8861 12.9441 17.9314C12.8349 17.9767 12.7178 18 12.5995 18C12.4812 18 12.3641 17.9767 12.2549 17.9314C12.1456 17.8861 12.0464 17.8197 11.9628 17.7361Z" fill="white"/>
</svg>
