<svg width="20" height="19" viewBox="0 0 20 19" fill="none" xmlns="http://www.w3.org/2000/svg">
<g clip-path="url(#clip0_1_4437)">
<path d="M10.2395 18.3805C11.6359 18.1821 12.8601 16.7246 13.6304 14.5723C12.5169 14.3229 11.3806 14.1891 10.2395 14.1731L10.2395 18.3805ZM12.4705 18.0382C12.553 18.0143 12.6352 17.9902 12.7168 17.9638C12.7856 17.9417 12.8536 17.9178 12.9214 17.894C13.0019 17.8664 13.0819 17.8376 13.1614 17.8075C13.2293 17.7817 13.2966 17.7543 13.3639 17.7268C13.4417 17.6942 13.5193 17.6617 13.5961 17.629C13.7395 17.5655 13.8812 17.4985 14.0213 17.4282C14.0866 17.3949 14.1518 17.361 14.2171 17.3261C14.2903 17.2869 14.363 17.2469 14.4351 17.2057C14.4996 17.1692 14.5635 17.1317 14.627 17.0934C14.6978 17.0499 14.7682 17.0064 14.8381 16.9629C14.901 16.9231 14.9632 16.8824 15.0249 16.8409C15.0936 16.7942 15.1617 16.7465 15.2292 16.6979C15.2896 16.6548 15.3497 16.6113 15.4096 16.5674C15.4759 16.5164 15.5418 16.4648 15.6073 16.4126C15.6655 16.3663 15.7235 16.3202 15.7807 16.2726C15.8459 16.2184 15.9084 16.1623 15.9716 16.1062C16.0271 16.057 16.0829 16.0082 16.137 15.9578C16.1993 15.8995 16.26 15.8393 16.3208 15.7796C16.3733 15.7276 16.4265 15.6765 16.478 15.6232C16.4876 15.6134 16.4967 15.6027 16.5066 15.5925C15.7948 15.2248 15.045 14.9363 14.2704 14.732C13.8675 16.0168 13.1506 17.1809 12.1846 18.1189C12.2111 18.112 12.2375 18.1064 12.2639 18.0996C12.3337 18.08 12.4023 18.0585 12.4705 18.0382ZM19.0436 9.59477H15.1305C15.1157 11.1226 14.894 12.6415 14.4716 14.1099C15.333 14.34 16.1644 14.6708 16.9484 15.0955C18.2357 13.544 18.9725 11.6095 19.0436 9.59477H19.0436ZM10.2395 8.94206H14.4778C14.4612 7.4682 14.2451 6.00339 13.8353 4.58754C12.6552 4.85669 11.4499 5.00043 10.2395 5.01637V8.94206ZM10.2395 0.15625V4.36366C11.3805 4.3476 12.5168 4.21383 13.6304 3.96449C12.8601 1.81209 11.636 0.354674 10.2395 0.15625H10.2395ZM10.2395 13.5204C11.4499 13.5365 12.6552 13.6803 13.8353 13.9494C14.2451 12.5335 14.4612 11.0687 14.4778 9.59477H10.2395V13.5204ZM16.9484 3.44134C16.1644 3.86602 15.3331 4.19683 14.4716 4.42693C14.8941 5.89533 15.1157 7.41417 15.1305 8.94206H19.0436C18.9723 6.92732 18.2356 4.99296 16.9484 3.44134ZM16.5075 2.94622C16.4979 2.93651 16.4889 2.92598 16.4795 2.91595C16.4278 2.86271 16.3743 2.81139 16.3217 2.75963C16.2612 2.69986 16.2007 2.63949 16.1383 2.58148C16.0843 2.5311 16.0283 2.48345 15.9729 2.43327C15.9096 2.37718 15.8464 2.3206 15.7813 2.26642C15.7249 2.21877 15.6671 2.17321 15.6097 2.12748C15.5442 2.07426 15.4777 2.02224 15.4102 1.97144C15.3512 1.9272 15.2916 1.8837 15.2314 1.84094C15.1635 1.79161 15.0947 1.74337 15.0252 1.69624C14.9641 1.6552 14.9024 1.61498 14.8402 1.57561C14.77 1.53018 14.699 1.48588 14.6273 1.44274C14.5643 1.40489 14.5009 1.36781 14.437 1.3315C14.3643 1.2899 14.291 1.24932 14.2172 1.20976C14.1518 1.17709 14.0866 1.14156 14.0213 1.10888C13.9462 1.07094 13.8705 1.03447 13.7929 0.998613C13.7271 0.967311 13.6608 0.937025 13.5941 0.907764C13.5168 0.873497 13.4387 0.842615 13.3608 0.809939C13.2937 0.782368 13.2264 0.755591 13.1587 0.729615C13.0792 0.699523 12.9993 0.670732 12.9189 0.643253C12.851 0.619074 12.7828 0.595751 12.7143 0.573291C12.6327 0.546856 12.5511 0.522788 12.4673 0.498556C12.3994 0.478648 12.3312 0.458414 12.2625 0.44022C12.2362 0.433081 12.2095 0.427492 12.183 0.420638C13.149 1.35866 13.8659 2.52272 14.2688 3.80751C15.0443 3.60324 15.7951 3.31441 16.5075 2.94622ZM0.782715 8.94206H4.69579C4.71064 7.41419 4.93223 5.89535 5.35454 4.42693C4.49311 4.19694 3.66182 3.86612 2.87791 3.44134C1.59062 4.99287 0.853816 6.92728 0.782715 8.94206ZM9.58679 18.3805V14.1732C8.4458 14.1892 7.3095 14.323 6.19597 14.5723C6.96608 16.7247 8.1904 18.1821 9.58679 18.3806V18.3805ZM9.58679 9.59477H5.3485C5.36505 11.0687 5.58119 12.5335 5.99101 13.9494C7.17115 13.6801 8.37643 13.5363 9.58679 13.5204V9.59477ZM9.58679 0.15625C8.1904 0.354674 6.96608 1.81209 6.19597 3.96449C7.30948 4.21399 8.44579 4.34775 9.58679 4.36366V0.15625ZM9.58679 5.01637C8.37645 5.00043 7.17117 4.85668 5.99101 4.58754C5.58118 6.00337 5.36505 7.4682 5.3485 8.94206H9.58679V5.01637ZM7.64078 0.420353C7.61435 0.427166 7.58787 0.432754 7.56144 0.439608C7.49229 0.458088 7.42408 0.478648 7.35522 0.498556C7.2733 0.522461 7.19204 0.54653 7.10984 0.572638C7.04049 0.595116 6.97232 0.619022 6.90412 0.642805C6.82428 0.670953 6.74428 0.699019 6.66522 0.728962C6.59702 0.755112 6.52979 0.782199 6.46223 0.809939C6.3846 0.842575 6.30685 0.875251 6.23019 0.907764C6.16296 0.937259 6.09651 0.96814 6.02989 0.999225C5.95444 1.03464 5.87948 1.07109 5.80503 1.10855C5.66534 1.17927 5.52745 1.2535 5.3915 1.33117C5.32667 1.36739 5.2625 1.40479 5.19903 1.44335C5.12813 1.48607 5.05801 1.53025 4.98821 1.5739C4.92538 1.61404 4.86309 1.65451 4.80145 1.69628C4.7327 1.74297 4.66459 1.79061 4.59715 1.83918C4.53667 1.88233 4.47649 1.92588 4.4166 1.96985C4.34982 2.02002 4.28605 2.07232 4.21883 2.12446C4.16086 2.1708 4.10236 2.21686 4.04561 2.26479C3.9803 2.31868 3.91833 2.37444 3.85535 2.43025C3.79958 2.47994 3.74333 2.52824 3.68882 2.57972C3.62682 2.63757 3.56644 2.69762 3.5059 2.75722C3.45328 2.80919 3.39976 2.86047 3.34815 2.91387C3.33877 2.92374 3.32967 2.93459 3.31976 2.94463C4.03146 3.31241 4.78135 3.60103 5.55598 3.80531C5.95877 2.52123 6.6753 1.35787 7.64078 0.420353ZM3.50448 15.7772C3.56518 15.8369 3.62559 15.8973 3.68789 15.9555C3.74206 16.0056 3.79783 16.0533 3.85343 16.1035C3.9167 16.1598 3.97997 16.2162 4.045 16.2704C4.10142 16.3177 4.15894 16.3634 4.21662 16.4093C4.28193 16.4622 4.34712 16.5148 4.41627 16.5657C4.4751 16.6098 4.53486 16.6525 4.59458 16.6963C4.66279 16.7452 4.73165 16.7942 4.80112 16.8412C4.86228 16.8822 4.92395 16.9225 4.98613 16.9619C5.0567 17.0072 5.12715 17.0517 5.19903 17.0947C5.26198 17.1326 5.32554 17.1698 5.3893 17.2061C5.46199 17.2477 5.53529 17.2882 5.60918 17.3277C5.67437 17.3603 5.73972 17.3959 5.80503 17.4286C5.8801 17.4665 5.95581 17.503 6.0334 17.539C6.09871 17.5697 6.165 17.6 6.23227 17.6297C6.30954 17.6639 6.3875 17.6948 6.46558 17.7275C6.5328 17.7549 6.59975 17.782 6.66763 17.8078C6.74681 17.8382 6.82714 17.8666 6.90746 17.8943C6.97534 17.9181 7.04322 17.942 7.11204 17.9641C7.19363 17.9906 7.27522 18.0148 7.35905 18.0389C7.42694 18.0588 7.49514 18.079 7.56368 18.0973C7.59011 18.1045 7.61687 18.1101 7.64335 18.1169C6.67738 17.1788 5.96049 16.0147 5.55753 14.7299C4.78291 14.9343 4.03303 15.223 3.32135 15.5909C3.33094 15.6006 3.34003 15.6111 3.34958 15.6212C3.39853 15.6741 3.45124 15.7254 3.50448 15.7772ZM2.87791 15.0954C3.66189 14.6708 4.49316 14.34 5.35454 14.1098C4.93223 12.6414 4.71064 11.1226 4.69579 9.59472H0.782715C0.853917 11.6095 1.59071 13.5439 2.87791 15.0954Z" fill="#9488FD"/>
</g>
<defs>
<clipPath id="clip0_1_4437">
<rect width="18.2609" height="18.2609" fill="white" transform="translate(0.782715 0.130371)"/>
</clipPath>
</defs>
</svg>
