<svg width="20" height="19" viewBox="0 0 20 19" fill="none" xmlns="http://www.w3.org/2000/svg">
<path d="M19.4143 11.3261V18.3912H15.3183V11.7991C15.3183 10.1426 14.7256 9.01282 13.2434 9.01282C12.1117 9.01282 11.4377 9.77497 11.1418 10.5113C11.0336 10.7746 11.0058 11.1413 11.0058 11.5099V18.3912H6.90787C6.90787 18.3912 6.9634 7.22714 6.90787 6.06956H11.0058V7.81598L10.979 7.8562H11.0058V7.81598C11.5497 6.9782 12.5215 5.7804 14.6978 5.7804C17.3931 5.7804 19.4143 7.54215 19.4143 11.3261ZM2.62223 0.130371C1.22146 0.130371 0.304199 1.04954 0.304199 2.25883C0.304199 3.4413 1.19465 4.38824 2.56862 4.38824H2.59542C4.02493 4.38824 4.9125 3.4413 4.9125 2.25883C4.88761 1.04954 4.02493 0.130371 2.62223 0.130371ZM0.547397 18.3912H4.64345V6.06956H0.547397V18.3912Z" fill="#9488FD"/>
</svg>
