<svg width="19" height="19" viewBox="0 0 19 19" fill="none" xmlns="http://www.w3.org/2000/svg">
<path d="M9.26172 6.52168C8.53526 6.52168 7.83855 6.81026 7.32486 7.32395C6.81117 7.83763 6.52259 8.53434 6.52259 9.26081C6.52259 9.98727 6.81117 10.684 7.32486 11.1977C7.83855 11.7114 8.53526 11.9999 9.26172 11.9999C9.98818 11.9999 10.6849 11.7114 11.1986 11.1977C11.7123 10.684 12.0008 9.98727 12.0008 9.26081C12.0008 8.53434 11.7123 7.83763 11.1986 7.32395C10.6849 6.81026 9.98818 6.52168 9.26172 6.52168ZM9.26172 4.69559C10.4725 4.69559 11.6337 5.17657 12.4898 6.03271C13.346 6.88885 13.8269 8.05003 13.8269 9.26081C13.8269 10.4716 13.346 11.6328 12.4898 12.4889C11.6337 13.345 10.4725 13.826 9.26172 13.826C8.05095 13.826 6.88977 13.345 6.03362 12.4889C5.17748 11.6328 4.6965 10.4716 4.6965 9.26081C4.6965 8.05003 5.17748 6.88885 6.03362 6.03271C6.88977 5.17657 8.05095 4.69559 9.26172 4.69559ZM15.1965 4.46733C15.1965 4.77002 15.0763 5.06032 14.8622 5.27435C14.6482 5.48839 14.3579 5.60863 14.0552 5.60863C13.7525 5.60863 13.4622 5.48839 13.2482 5.27435C13.0341 5.06032 12.9139 4.77002 12.9139 4.46733C12.9139 4.16464 13.0341 3.87434 13.2482 3.6603C13.4622 3.44627 13.7525 3.32602 14.0552 3.32602C14.3579 3.32602 14.6482 3.44627 14.8622 3.6603C15.0763 3.87434 15.1965 4.16464 15.1965 4.46733ZM9.26172 1.95646C7.00285 1.95646 6.63398 1.96285 5.58307 2.00941C4.86724 2.0432 4.38698 2.13907 3.94141 2.31254C3.56854 2.44944 3.23144 2.66887 2.95533 2.95441C2.66955 3.23052 2.44982 3.5676 2.31254 3.9405C2.13907 4.38789 2.0432 4.86724 2.01033 5.58215C1.96285 6.59015 1.95646 6.94259 1.95646 9.26081C1.95646 11.5206 1.96285 11.8885 2.00941 12.9395C2.0432 13.6544 2.13907 14.1355 2.31163 14.5802C2.46685 14.9774 2.64946 15.2632 2.95259 15.5663C3.26028 15.8731 3.54607 16.0566 3.93868 16.2082C4.38972 16.3825 4.86998 16.4793 5.58215 16.5122C6.59015 16.5597 6.94259 16.5652 9.26081 16.5652C11.5206 16.5652 11.8885 16.5588 12.9395 16.5122C13.6535 16.4784 14.1337 16.3825 14.5802 16.21C14.9527 16.0724 15.2897 15.8531 15.5663 15.5681C15.874 15.2613 16.0575 14.9755 16.2091 14.582C16.3825 14.1328 16.4793 13.6525 16.5122 12.9385C16.5597 11.9315 16.5652 11.5781 16.5652 9.26081C16.5652 7.00194 16.5588 6.63307 16.5122 5.58215C16.4784 4.86815 16.3816 4.38607 16.2091 3.9405C16.0714 3.568 15.8521 3.23105 15.5672 2.95441C15.2912 2.66849 14.9541 2.44874 14.5811 2.31163C14.1337 2.13815 13.6535 2.04228 12.9395 2.00941C11.9324 1.96194 11.5799 1.95646 9.26081 1.95646M9.26081 0.130371C11.7415 0.130371 12.0511 0.139501 13.0253 0.185154C13.9968 0.230806 14.6596 0.383284 15.2412 0.609719C15.8438 0.841632 16.3515 1.15572 16.8592 1.66246C17.3234 2.11888 17.6827 2.671 17.9119 3.28037C18.1374 3.86198 18.2908 4.52485 18.3365 5.49724C18.3794 6.47054 18.3912 6.78007 18.3912 9.26081C18.3912 11.7415 18.3821 12.0511 18.3365 13.0244C18.2908 13.9968 18.1374 14.6587 17.9119 15.2412C17.6833 15.8509 17.324 16.4032 16.8592 16.8592C16.4026 17.3233 15.8505 17.6825 15.2412 17.9119C14.6596 18.1374 13.9968 18.2908 13.0253 18.3365C12.0511 18.3794 11.7415 18.3912 9.26081 18.3912C6.78007 18.3912 6.47054 18.3821 5.49633 18.3365C4.52485 18.2908 3.86289 18.1374 3.28037 17.9119C2.67076 17.6832 2.11855 17.3238 1.66246 16.8592C1.19811 16.4028 0.838856 15.8507 0.609719 15.2412C0.383284 14.6596 0.230806 13.9968 0.185154 13.0244C0.141328 12.0511 0.130371 11.7415 0.130371 9.26081C0.130371 6.78007 0.139501 6.47054 0.185154 5.49724C0.230806 4.52485 0.383284 3.86289 0.609719 3.28037C0.838195 2.67062 1.19754 2.11836 1.66246 1.66246C2.11868 1.19793 2.67085 0.838646 3.28037 0.609719C3.86198 0.383284 4.52394 0.230806 5.49633 0.185154C6.47146 0.142241 6.78098 0.130371 9.26172 0.130371" fill="#9488FD"/>
</svg>
