<svg width="49" height="65" viewBox="0 0 49 65" fill="none" xmlns="http://www.w3.org/2000/svg">
<path d="M10.1128 42.5225L13.8511 27.5517L13.9283 27.2425L13.6806 27.042L1.2856 17.0051L17.6466 15.6817L17.9399 15.658L18.0615 15.3901L24.5017 1.2091L30.9417 15.3871L31.0634 15.6549L31.3566 15.6787L47.7146 17.002L35.3225 27.039L35.075 27.2396L35.1521 27.5487L38.8905 42.5198L24.7472 34.5458L24.5016 34.4073L24.256 34.5458L10.1128 42.5225Z" fill="white" stroke="#715E98"/>
<path d="M16.41 51.39H17.15C17.17 51.6767 17.2767 51.91 17.47 52.09C17.67 52.27 17.9567 52.36 18.33 52.36C18.5567 52.36 18.7333 52.33 18.86 52.27C18.9933 52.21 19.09 52.13 19.15 52.03C19.21 51.9233 19.24 51.8067 19.24 51.68C19.24 51.5267 19.2 51.4067 19.12 51.32C19.0467 51.2267 18.9433 51.15 18.81 51.09C18.6833 51.03 18.5367 50.9733 18.37 50.92C18.1767 50.8467 17.9767 50.77 17.77 50.69C17.57 50.6033 17.38 50.5033 17.2 50.39C17.0267 50.27 16.8867 50.1267 16.78 49.96C16.6733 49.7867 16.62 49.58 16.62 49.34C16.62 49.14 16.66 48.9533 16.74 48.78C16.82 48.6 16.9333 48.4467 17.08 48.32C17.2333 48.1867 17.41 48.0833 17.61 48.01C17.8167 47.9367 18.0433 47.9 18.29 47.9C18.6233 47.9 18.9033 47.9667 19.13 48.1C19.3633 48.2333 19.54 48.4233 19.66 48.67C19.7867 48.91 19.8533 49.19 19.86 49.51H19.17C19.1233 49.21 19.0267 48.9933 18.88 48.86C18.74 48.72 18.5367 48.65 18.27 48.65C17.9967 48.65 17.7867 48.71 17.64 48.83C17.4933 48.95 17.42 49.11 17.42 49.31C17.42 49.4567 17.4733 49.58 17.58 49.68C17.6867 49.7733 17.8233 49.86 17.99 49.94C18.1633 50.0133 18.3467 50.09 18.54 50.17C18.7333 50.25 18.92 50.33 19.1 50.41C19.28 50.49 19.44 50.5833 19.58 50.69C19.72 50.7967 19.83 50.93 19.91 51.09C19.9967 51.2433 20.04 51.4367 20.04 51.67C20.04 51.95 19.9733 52.2 19.84 52.42C19.7133 52.6333 19.5233 52.8 19.27 52.92C19.0233 53.04 18.72 53.1 18.36 53.1C18.0333 53.1 17.7533 53.06 17.52 52.98C17.2933 52.8933 17.1033 52.7833 16.95 52.65C16.7967 52.51 16.6767 52.3633 16.59 52.21C16.51 52.0567 16.4567 51.9067 16.43 51.76C16.4033 51.6133 16.3967 51.49 16.41 51.39ZM22.9541 53.1C22.5607 53.1 22.1974 52.99 21.8641 52.77C21.5374 52.5433 21.2741 52.2367 21.0741 51.85C20.8807 51.4567 20.7841 51.01 20.7841 50.51C20.7841 50.01 20.8841 49.5633 21.0841 49.17C21.2841 48.7767 21.5541 48.4667 21.8941 48.24C22.2407 48.0133 22.6274 47.9 23.0541 47.9C23.5207 47.9 23.8741 48.02 24.1141 48.26C24.3607 48.4933 24.5274 48.8067 24.6141 49.2C24.7074 49.5933 24.7541 50.03 24.7541 50.51C24.7541 50.7633 24.7274 51.04 24.6741 51.34C24.6207 51.6333 24.5274 51.9167 24.3941 52.19C24.2674 52.4567 24.0874 52.6767 23.8541 52.85C23.6207 53.0167 23.3207 53.1 22.9541 53.1ZM23.1541 52.34C23.4941 52.34 23.7741 52.2567 23.9941 52.09C24.2207 51.9233 24.3874 51.7033 24.4941 51.43C24.6007 51.15 24.6541 50.8433 24.6541 50.51C24.6541 50.1433 24.5974 49.8233 24.4841 49.55C24.3774 49.27 24.2107 49.0533 23.9841 48.9C23.7641 48.74 23.4874 48.66 23.1541 48.66C22.6541 48.66 22.2674 48.8367 21.9941 49.19C21.7207 49.5367 21.5841 49.9767 21.5841 50.51C21.5841 50.8633 21.6507 51.18 21.7841 51.46C21.9241 51.7333 22.1107 51.95 22.3441 52.11C22.5841 52.2633 22.8541 52.34 23.1541 52.34ZM24.6541 48H25.4541V53H24.7241C24.7241 53 24.7174 52.94 24.7041 52.82C24.6974 52.7 24.6874 52.56 24.6741 52.4C24.6607 52.24 24.6541 52.1067 24.6541 52V48ZM28.6874 52.31H28.4474L29.9774 48H30.8474L28.9474 53H28.1974L26.3074 48H27.1774L28.6874 52.31ZM35.0923 51.39H35.8423C35.789 51.7167 35.669 52.01 35.4823 52.27C35.3023 52.5233 35.0623 52.7267 34.7623 52.88C34.469 53.0267 34.129 53.1 33.7423 53.1C33.2757 53.1 32.8557 52.99 32.4823 52.77C32.109 52.5433 31.8123 52.2367 31.5923 51.85C31.379 51.4567 31.2723 51.01 31.2723 50.51C31.2723 50.01 31.3757 49.5633 31.5823 49.17C31.7957 48.7767 32.0857 48.4667 32.4523 48.24C32.819 48.0133 33.2323 47.9 33.6923 47.9C34.179 47.9 34.589 48.01 34.9223 48.23C35.2623 48.4433 35.5123 48.76 35.6723 49.18C35.839 49.5933 35.9057 50.1033 35.8723 50.71H32.0723C32.1057 51.0367 32.1957 51.3233 32.3423 51.57C32.489 51.8167 32.6823 52.01 32.9223 52.15C33.1623 52.2833 33.4357 52.35 33.7423 52.35C34.0823 52.35 34.369 52.2633 34.6023 52.09C34.8423 51.91 35.0057 51.6767 35.0923 51.39ZM33.7223 48.65C33.309 48.65 32.9623 48.77 32.6823 49.01C32.4023 49.25 32.2157 49.5767 32.1223 49.99H35.0523C35.0257 49.55 34.8823 49.2167 34.6223 48.99C34.369 48.7633 34.069 48.65 33.7223 48.65Z" fill="#747474"/>
</svg>
