<svg width="143" height="135" viewBox="0 0 143 135" fill="none" xmlns="http://www.w3.org/2000/svg">
<path d="M21.6499 114.045C15.4107 108.204 19.5489 95.9412 16.3732 88.756C13.0811 81.3074 1.00098 75.3125 1.00098 67.3767C1.00098 59.441 13.0812 53.4463 16.3733 45.9979C19.549 38.8127 15.4107 26.5501 21.6499 20.7093C27.8892 14.8685 40.9883 18.7424 48.6636 15.7695C56.6203 12.6877 63.0241 1.37891 71.5012 1.37891C79.9783 1.37891 86.3819 12.6877 94.3384 15.7695C102.014 18.7425 115.113 14.8685 121.352 20.7093C127.591 26.5501 123.453 38.8127 126.629 45.998C129.921 53.4465 142.001 59.4414 142.001 67.3772C142.001 75.3129 129.921 81.3076 126.629 88.756C123.453 95.9412 127.591 108.204 121.352 114.045C115.113 119.885 102.014 116.011 94.3383 118.984C86.3817 122.066 79.9779 133.375 71.5007 133.375C63.0237 133.375 56.6201 122.066 48.6636 118.984C40.9882 116.011 27.8892 119.885 21.6499 114.045Z" stroke="white" stroke-width="2" stroke-linecap="round" stroke-linejoin="round"/>
<path d="M101.221 49.8706L61.4518 85.408L41.5674 67.6393" stroke="white" stroke-width="5" stroke-linecap="round" stroke-linejoin="round"/>
</svg>
