<svg width="114" height="104" viewBox="0 0 114 104" fill="none" xmlns="http://www.w3.org/2000/svg">
<path d="M17.402 88.0624C12.446 83.5489 15.7331 74.073 13.2106 68.5206C10.5956 62.7648 1 58.1322 1 51.9998C1 45.8675 10.5956 41.2351 13.2106 35.4793C15.7332 29.9269 12.446 20.4511 17.402 15.9376C22.358 11.4241 32.763 14.4177 38.8597 12.1203C45.1799 9.73883 50.2666 1 57.0002 1C63.7337 1 68.8203 9.73888 75.1403 12.1204C81.2371 14.4177 91.642 11.4241 96.598 15.9376C101.554 20.451 98.2669 29.927 100.789 35.4794C103.404 41.2352 113 45.8678 113 52.0002C113 58.1325 103.404 62.7649 100.789 68.5207C98.2668 74.0731 101.554 83.5489 96.598 88.0624C91.642 92.5759 81.2371 89.5823 75.1403 91.8797C68.8201 94.2612 63.7334 103 56.9998 103C50.2663 103 45.1797 94.2611 38.8597 91.8796C32.7629 89.5823 22.358 92.5759 17.402 88.0624Z" stroke="#0FB129" stroke-width="2" stroke-linecap="round" stroke-linejoin="round"/>
<path d="M80.6073 38.4716L49.0174 65.9332L33.2227 52.2024" stroke="#0FB129" stroke-width="5" stroke-linecap="round" stroke-linejoin="round"/>
</svg>
