<svg width="20" height="20" viewBox="0 0 20 20" fill="none" xmlns="http://www.w3.org/2000/svg">
<g clip-path="url(#clip0_1_3128)">
<path fill-rule="evenodd" clip-rule="evenodd" d="M9.99984 3.33335C6.31794 3.33335 3.33317 6.31812 3.33317 10C3.33317 13.6819 6.31794 16.6667 9.99984 16.6667C13.6817 16.6667 16.6665 13.6819 16.6665 10C16.6665 6.31812 13.6817 3.33335 9.99984 3.33335ZM1.6665 10C1.6665 5.39765 5.39746 1.66669 9.99984 1.66669C14.6022 1.66669 18.3332 5.39765 18.3332 10C18.3332 14.6024 14.6022 18.3334 9.99984 18.3334C5.39746 18.3334 1.6665 14.6024 1.6665 10Z" fill="#56CDAD"/>
<path fill-rule="evenodd" clip-rule="evenodd" d="M13.0891 7.74408C13.4145 8.06951 13.4145 8.59715 13.0891 8.92259L9.75576 12.2559C9.43032 12.5814 8.90269 12.5814 8.57725 12.2559L6.91058 10.5893C6.58514 10.2638 6.58514 9.73618 6.91058 9.41074C7.23602 9.08531 7.76366 9.08531 8.08909 9.41074L9.1665 10.4882L11.9106 7.74408C12.236 7.41864 12.7637 7.41864 13.0891 7.74408Z" fill="#56CDAD"/>
</g>
<defs>
<clipPath id="clip0_1_3128">
<rect width="20" height="20" fill="white"/>
</clipPath>
</defs>
</svg>
